<?xml version="1.0" encoding="UTF-8"?>
<svg width="478px" height="445px" viewBox="0 0 478 445" version="1.1" xmlns="http://www.w3.org/2000/svg" xmlns:xlink="http://www.w3.org/1999/xlink">
    <!-- Generator: Sketch 51.3 (57544) - http://www.bohemiancoding.com/sketch -->
    <title>heart</title>
    <desc>Created with Sketch.</desc>
    <defs></defs>
    <g id="Page-1" stroke="none" stroke-width="1" fill="none" fill-rule="evenodd">
        <g id="heart" fill="#FFFFFF" fill-rule="nonzero">
            <path d="M438.482,42.61 C413.782,16.061 379.171,0.955 342.909,0.899 C306.618,0.941 271.971,16.039 247.233,42.593 L238.802,51.502 L230.371,42.593 C181.284,-10.238 98.662,-13.272 45.832,35.815 C43.491,37.991 41.23,40.251 39.054,42.593 C-13.018,98.759 -13.018,185.561 39.054,241.727 L226.412,439.308 C232.894,446.151 243.696,446.444 250.539,439.962 C250.763,439.75 250.981,439.532 251.193,439.308 L438.483,241.727 C490.551,185.567 490.551,98.77 438.482,42.61 Z M413.787,218.226 L413.77,218.226 L238.802,402.768 L63.818,218.226 C24.038,175.31 24.038,108.993 63.818,66.077 C99.943,26.923 160.97,24.468 200.124,60.593 C202.025,62.347 203.854,64.176 205.608,66.077 L226.412,88.025 C233.268,94.837 244.337,94.837 251.193,88.025 L271.997,66.094 C308.122,26.94 369.149,24.485 408.303,60.61 C410.204,62.364 412.033,64.193 413.787,66.094 C453.913,109.078 454.207,175.516 413.787,218.226 Z" id="Shape"></path>
        </g>
    </g>
</svg>